<svg width="1024" height="1024" version="1.1" xmlns="http://www.w3.org/2000/svg" desc="Created with imagetracer.js version 1.2.6" ><path fill="rgb(0,0,0)" stroke="rgb(0,0,0)" stroke-width="1" opacity="0" d="M 0 0 L 1024 0 L 1024 1024 L 0 1024 L 0 0 Z M 480 155 L 479 156 L 462 157 L 433 162 L 401 171 Q 399 174 398 172 L 353 191 L 329 205 L 291 233 L 266 257 Q 267 259 264 258 L 242 286 Q 243 288 240 287 L 222 315 L 208 341 L 207 346 L 203 352 L 192 381 L 186 404 Q 187 408 185 407 L 185 409 L 182 425 L 182 432 L 181 433 L 181 441 L 180 442 L 180 464 L 179 465 L 180 467 L 179 472 L 180 473 L 181 502 L 185 518 L 185 525 L 188 539 L 200 574 L 213 600 Q 212 603 215 602 L 218 611 L 238 640 L 234 665 L 231 674 L 231 679 L 218 739 L 217 749 L 215 753 L 215 758 L 213 764 L 213 774 L 218 786 L 226 791 L 237 792 L 238 793 L 260 785 L 268 780 L 278 777 L 282 774 L 305 765 L 359 740 L 365 740 L 380 748 L 410 759 L 435 766 L 439 766 L 441 766 L 450 769 L 468 771 L 469 772 L 476 772 L 477 773 L 479 772 Q 480 775 487 773 L 492 774 L 538 774 L 539 773 L 549 773 L 550 772 L 566 771 Q 568 768 575 769 L 577 769 L 620 758 Q 621 754 623 757 L 631 754 Q 632 750 634 753 L 636 751 L 646 748 L 673 735 L 690 725 L 719 705 L 748 680 L 760 666 L 763 664 Q 794 629 815 584 L 827 552 L 832 533 L 836 511 L 836 504 L 837 503 L 837 492 L 838 491 L 838 469 L 834 460 L 826 452 L 818 449 L 807 449 L 796 454 Q 789 459 787 467 L 786 487 L 785 488 L 785 497 L 784 498 L 783 510 Q 778 533 770 554 Q 752 596 724 629 L 721 631 L 718 635 Q 691 664 656 684 Q 653 683 654 686 L 652 686 L 621 702 L 615 703 L 597 710 Q 586 711 579 715 L 574 715 L 556 719 L 538 720 L 537 721 Q 531 723 530 720 L 527 722 L 523 721 L 521 721 Q 515 723 514 720 Q 512 723 507 721 L 505 721 L 473 719 L 471 719 L 421 707 L 386 693 L 375 687 L 366 685 L 354 686 L 348 688 L 276 720 Q 274 722 273 720 L 289 640 L 288 639 L 288 629 L 285 620 L 275 606 Q 276 603 273 604 L 273 601 L 271 601 L 269 596 L 258 579 L 246 552 L 238 526 L 236 513 L 236 511 L 233 495 L 233 473 L 232 472 L 233 469 L 232 464 L 233 463 L 234 438 L 237 425 L 237 420 L 244 393 L 255 364 L 263 348 L 275 329 Q 274 326 277 327 L 277 325 L 289 311 L 289 309 L 292 307 L 300 297 Q 302 298 301 295 L 303 295 L 303 293 L 305 293 L 307 290 Q 309 291 308 289 L 311 287 L 312 285 L 323 276 L 326 271 L 330 270 L 331 267 L 366 244 L 404 226 L 424 219 L 451 212 L 478 209 L 479 208 L 486 208 L 487 207 L 525 207 L 526 208 L 554 210 L 587 217 L 605 223 L 607 223 L 609 225 L 626 231 L 660 249 Q 686 266 709 287 L 714 294 L 717 296 Q 716 298 719 297 L 739 321 L 743 328 L 719 344 Q 713 348 712 356 Q 712 363 716 367 L 731 374 L 736 375 L 811 406 Q 819 407 824 403 Q 828 399 829 393 L 829 281 L 825 272 L 818 269 L 811 270 L 804 274 L 788 300 Q 783 298 786 297 L 785 296 L 767 274 Q 768 271 765 272 L 759 264 L 737 241 Q 734 242 735 240 L 713 221 Q 710 222 711 219 L 708 218 L 687 203 L 683 202 L 671 194 L 653 185 L 607 168 L 584 162 L 580 162 L 578 162 L 568 159 L 546 157 L 545 156 L 536 156 L 535 155 L 480 155 Z M 634 176 L 634 177 L 636 177 L 634 176 Z M 738 320 L 736 322 L 738 322 L 738 320 Z M 641 329 Q 627 331 620 340 L 620 341 L 618 341 Q 619 344 617 343 L 615 346 L 612 348 L 604 357 L 596 364 Q 597 366 595 365 L 577 383 L 577 384 L 576 384 L 563 397 Q 564 399 561 398 L 561 400 L 559 400 L 559 402 L 558 402 L 548 412 Q 549 414 547 413 L 545 416 L 542 418 L 540 421 L 536 424 L 527 434 L 523 437 L 513 447 L 513 448 L 510 450 Q 511 452 509 451 L 494 466 L 494 467 L 493 467 L 475 485 Q 472 484 473 487 L 468 491 L 403 426 Q 398 421 389 420 L 386 419 L 376 419 L 365 424 Q 355 430 352 444 L 352 451 L 354 458 L 361 468 L 368 473 L 368 475 L 384 490 Q 386 489 385 492 L 391 496 L 415 521 L 416 521 L 416 523 Q 419 522 418 525 L 423 528 L 424 531 L 430 535 L 432 539 L 439 544 L 443 549 L 446 551 L 449 556 L 453 559 L 458 561 Q 459 564 461 562 L 463 563 L 466 564 Q 479 564 485 557 L 486 554 L 488 554 L 500 542 Q 499 539 502 540 L 510 531 Q 512 532 511 530 L 514 528 L 515 526 L 519 523 L 519 522 L 555 486 L 555 484 L 558 483 Q 557 480 560 481 L 560 480 L 590 449 Q 592 450 591 447 L 593 447 L 593 446 L 599 441 L 599 440 L 614 424 L 633 406 Q 632 403 635 404 L 640 398 Q 642 399 641 397 L 646 393 L 659 378 L 662 376 Q 668 371 671 362 L 671 350 Q 669 342 664 339 Q 665 336 662 337 L 662 335 L 652 330 L 641 329 Z M 179 479 L 178 482 L 179 482 L 179 479 Z M 179 483 L 178 488 L 179 488 L 179 483 Z " /><path fill="rgb(10,191,225)" stroke="rgb(10,191,225)" stroke-width="1" opacity="0.9882352941176471" d="M 485.5 156 L 497.5 156 L 498.5 157 L 500.5 157 Q 506.4 154.4 516.5 156 L 518.5 157 L 520.5 157 L 532.5 157 L 533.5 158 L 537.5 157 L 540.5 158 L 544.5 159 L 547.5 158 L 549.5 159 L 553.5 159 L 557.5 160 L 559.5 160 L 564.5 161 L 566.5 161 Q 569.1 160.3 568 163 L 564.5 162 L 561 163 L 560 166.5 L 562 167 L 563.5 164 L 565.5 165 L 567.5 164 L 567.5 165 Q 565.3 164.3 566 166.5 Q 567.6 169.5 573 168 L 572 172.5 L 575.5 174 L 575.5 173 L 574 172.5 L 577 172 L 576 176.5 L 576 178.5 L 574 184.5 L 575 184.5 L 576.5 182 L 578.5 181 L 579.5 183 L 578 182.5 L 577.5 184 L 576 183.5 Q 575.3 185.8 577.5 185 L 576.5 187 L 573.5 185 L 573 189 L 576 190.5 L 575.5 192 Q 573.8 188.3 572 191.5 L 576 194.5 L 574 195.5 L 574.5 194 L 572.5 193 L 569 198.5 L 571.5 199 Q 573.3 195.3 575 198.5 L 574.5 200 L 573.5 198 L 571 201.5 L 573 204.5 L 572 207 L 574 207.5 L 569.5 208 L 566.5 206 L 566 208 L 555.5 209 L 552.5 208 L 548.5 209 L 547.5 208 L 527.5 207 L 526.5 206 L 488.5 206 L 487.5 207 L 474.5 207 L 465.5 209 L 463.5 209 L 440.5 213 L 428.5 217 Q 427 214.5 425.5 218 L 422.5 218 L 408 223.5 L 408.5 225 L 404.5 224 L 356.5 248 Q 337.7 259.7 322 274.5 L 322.5 276 L 320.5 276 L 311 284.5 L 311.5 286 L 310.5 285 L 302 293.5 L 302.5 295 L 301.5 294 L 293 302.5 L 288 309.5 L 288.5 311 L 287.5 310 L 284 313.5 Q 257.1 348.1 242 394.5 L 237 413.5 L 233 435.5 L 233 442.5 L 232 443.5 L 231 484.5 L 232 485.5 L 232 497.5 L 233 498.5 L 235 517.5 L 239 534.5 L 247 557.5 Q 260.2 589.8 280.5 615 L 282 614.5 L 281 616.5 Q 289.1 624.4 287 642.5 L 285 647.5 L 281 673.5 L 279 678.5 L 271 723 L 280.5 720 L 332 696.5 L 331.5 695 L 334.5 696 L 355.5 687 L 368.5 687 L 373.5 688 L 375 687.5 L 374.5 689 Q 376.8 688.3 376 690.5 L 378.5 691 Q 383 690.5 383.5 694 L 385.5 694 L 391.5 698 L 392.5 697 L 397.5 700 L 435.5 713 L 437.5 713 L 439.5 714 L 441 713.5 Q 440.1 716.5 444.5 715 Q 445.8 717.3 450.5 716 L 452.5 718 L 454.5 717 L 457.5 718 L 461.5 719 L 463.5 719 L 469.5 720 L 471 719.5 Q 470.1 722.9 475.5 721 L 479 720.5 L 479.5 722 L 489.5 722 Q 492.5 723.5 489.5 725 L 489 723 L 486.5 724 Q 485 721.5 479.5 723 L 479.5 724 L 481 724.5 L 479 725.5 L 481.5 729 L 489.5 727 Q 491.3 730.1 493 728.5 L 492 731.5 L 492.5 733 Q 496.8 731.3 494 729.5 L 494.5 725 L 496.5 729 L 498.5 728 L 498 729.5 L 496 734 L 501 736.5 L 502 741 L 506 739.5 L 505 737.5 L 508 737.5 L 507 739.5 L 508 742.5 L 507 742.5 L 506.5 740 L 502.5 743 Q 501.2 740.7 500 743.5 L 502.5 747 L 504 746.5 L 503 749.5 L 503.5 751 L 501.5 752 L 499.5 752 L 498 752.5 L 501 754.5 L 501.5 753 Q 501.3 758.3 504 760.5 L 503 760.5 L 500.5 757 L 499 757.5 L 500 760.5 L 500.5 762 L 502 761.5 L 501 764 L 503 764.5 L 499 765 Q 500.1 762.3 497.5 763 L 498.5 760 L 497 759.5 L 497 757.5 L 498 755.5 Q 496.8 752.7 495.5 755 L 494 755.5 L 496 756.5 L 496 760.5 Q 495.2 765.8 498 767.5 L 496.5 767 L 494.5 768 L 492.5 768 Q 487 766.5 485.5 769 L 480.5 768 L 479.5 770 L 487.5 770 L 488.5 771 L 493.5 770 L 494.5 772 Q 488.3 773.8 486.5 771 Q 485.2 773.2 480.5 772 L 474.5 770 L 472.5 771 Q 470.7 768.2 464.5 770 L 461.5 768 L 457.5 768 L 453.5 766 L 453 768 L 447.5 766 L 445.5 767 L 440 766 L 439.5 764 L 432.5 764 L 424 762 L 424 760 L 417.5 760 L 417 758.5 L 415.5 759 L 404 756 Q 405.3 753 401.5 754 L 398.5 753 L 380.5 747 L 362.5 738 L 359.5 738 L 244.5 790 L 229.5 791 Q 221.8 789.1 218 783.5 L 214 773.5 L 214 765.5 L 219 745.5 L 220 735.5 L 222 730.5 L 222 725.5 L 226 710.5 L 230 686.5 L 232 683.5 L 231 681.5 L 239 646.5 L 239 639.5 L 236 635.5 L 236 633 Q 233.3 634.1 234 631.5 Q 211.7 602.3 198 564.5 L 199 563.5 Q 195.9 561.8 197.5 560 Q 194.9 560.8 196 557.5 Q 184.8 529.2 182 492.5 L 182 490.5 L 181 487.5 L 181 465.5 L 181 463.5 L 181 448.5 L 182 447.5 L 182 435.5 L 183 434.5 L 184 419.5 L 190 392.5 L 198 367 Q 201.7 368.4 200 362.5 L 202 357.5 L 201.5 356 L 203 356.5 L 208 343.5 L 223 315.5 L 222.5 314 L 224 314.5 L 230.5 304 Q 233.1 304.8 232 301.5 L 238 292.5 L 237.5 291 Q 238.8 293.3 240 290.5 L 265 259.5 L 264.5 258 L 265.5 259 L 282 242.5 L 281.5 241 Q 283 243.5 284.5 240 L 292.5 233 L 296 232 L 298.5 228 Q 322.4 208.4 351 193.5 L 350.5 192 L 352.5 193 L 352.5 191 L 355.5 192 L 379.5 180 L 414.5 168 L 444.5 161 L 471.5 158 L 472.5 157 L 484.5 157 L 485.5 156 Z M 537 159 L 537 160 L 539 160 L 537 159 Z M 564 165 L 563 167 L 566 168 L 564 165 Z M 567 172 L 568 176 L 569 173 L 567 172 Z M 570 176 L 571 177 L 570 180 L 572 180 L 574 180 Q 576 181 575 179 L 575 176 Q 572 175 573 178 L 572 178 Q 573 175 570 176 Z M 561 179 L 561 180 L 563 180 L 561 179 Z M 573 180 L 573 183 Q 576 182 573 180 Z M 571 188 L 569 190 L 571 190 L 571 188 Z M 568 190 L 569 195 L 569 194 L 569 192 Q 570 189 568 190 Z M 561 199 Q 559 202 562 201 L 561 199 Z M 564 201 L 565 203 L 566 203 L 564 201 Z M 568 202 L 566 204 L 568 206 L 568 204 L 570 204 L 572 204 Q 571 201 568 202 Z M 451 717 Q 449 720 452 719 L 451 717 Z M 464 725 L 465 727 Q 466 724 464 725 Z M 488 731 L 488 733 L 490 732 L 488 731 Z M 497 735 L 499 739 L 497 737 L 495 742 L 498 741 L 495 746 L 498 746 L 497 745 Q 501 742 500 736 L 497 735 Z M 491 745 L 492 747 Q 493 744 491 745 Z M 496 751 L 496 753 L 498 752 L 496 751 Z M 493 759 L 494 764 L 495 761 L 493 759 Z M 488 760 L 489 764 L 490 761 L 488 760 Z M 465 768 L 465 769 L 467 769 L 465 768 Z M 471 768 L 471 769 L 473 769 L 471 768 Z " /><path fill="rgb(10,191,225)" stroke="rgb(10,191,225)" stroke-width="1" opacity="0.9882352941176471" d="M 569.5 162 L 572 162.5 L 569.5 163 L 569.5 162 Z " /><path fill="rgb(10,191,225)" stroke="rgb(10,191,225)" stroke-width="1" opacity="0.9882352941176471" d="M 574 162 L 579 163.5 L 574 164 L 574 162 Z " /><path fill="rgb(10,191,225)" stroke="rgb(10,191,225)" stroke-width="1" opacity="0.9882352941176471" d="M 580.5 163 L 583 164.5 L 580 165 L 580.5 163 Z " /><path fill="rgb(10,191,225)" stroke="rgb(10,191,225)" stroke-width="1" opacity="0.9882352941176471" d="M 598.5 167 L 597.5 169 L 598.5 167 Z " /><path fill="rgb(10,191,225)" stroke="rgb(10,191,225)" stroke-width="1" opacity="0.9882352941176471" d="M 602.5 168 L 601.5 170 L 602.5 168 Z " /><path fill="rgb(10,191,225)" stroke="rgb(10,191,225)" stroke-width="1" opacity="0.9882352941176471" d="M 633.5 176 L 637 177.5 L 635.5 177 Q 632.5 177.5 633.5 176 Z " /><path fill="rgb(10,191,225)" stroke="rgb(10,191,225)" stroke-width="1" opacity="0.9882352941176471" d="M 578.5 187 L 581 187.5 Q 578.9 190.8 578.5 187 Z " /><path fill="rgb(10,191,225)" stroke="rgb(10,191,225)" stroke-width="1" opacity="0.9882352941176471" d="M 581 189 L 583 189.5 L 580 191.5 L 581 189 Z " /><path fill="rgb(10,191,225)" stroke="rgb(10,191,225)" stroke-width="1" opacity="0.9882352941176471" d="M 578.5 195 L 577.5 197 L 578.5 195 Z " /><path fill="rgb(10,191,225)" stroke="rgb(10,191,225)" stroke-width="1" opacity="0.9882352941176471" d="M 578.5 206 L 579.5 208 L 578.5 206 Z " /><path fill="rgb(10,191,225)" stroke="rgb(10,191,225)" stroke-width="1" opacity="0.9882352941176471" d="M 567.5 208 L 567.5 210 Q 570.1 209.3 569 212 Q 566.3 213.1 567 210.5 L 565.5 211 L 561 209.5 L 567.5 208 Z " /><path fill="rgb(10,191,225)" stroke="rgb(10,191,225)" stroke-width="1" opacity="0.9882352941176471" d="M 552.5 211 L 555 212.5 L 553.5 213 L 552.5 211 Z " /><path fill="rgb(10,191,225)" stroke="rgb(10,191,225)" stroke-width="1" opacity="0.9882352941176471" d="M 575.5 212 Q 578.8 210.9 578 213.5 L 576.5 213 L 575.5 212 Z " /><path fill="rgb(10,191,225)" stroke="rgb(10,191,225)" stroke-width="1" opacity="0.9882352941176471" d="M 579.5 213 Q 584.3 211.7 583 215 Q 578.8 215 579.5 213 Z " /><path fill="rgb(10,191,225)" stroke="rgb(10,191,225)" stroke-width="1" opacity="0.9882352941176471" d="M 584 214 L 586 214.5 L 584 215.5 L 584 214 Z " /><path fill="rgb(10,191,225)" stroke="rgb(10,191,225)" stroke-width="1" opacity="0.9882352941176471" d="M 711.5 218 L 710.5 220 L 711.5 218 Z " /><path fill="rgb(10,191,225)" stroke="rgb(10,191,225)" stroke-width="1" opacity="0.9882352941176471" d="M 249.5 274 L 248.5 276 L 249.5 274 Z " /><path fill="rgb(10,191,225)" stroke="rgb(10,191,225)" stroke-width="1" opacity="0.9882352941176471" d="M 737.5 320 L 738 322 L 736 321.5 L 737.5 320 Z " /><path fill="rgb(10,191,225)" stroke="rgb(10,191,225)" stroke-width="1" opacity="0.9882352941176471" d="M 824.5 401 L 823.5 403 L 824.5 401 Z " /><path fill="rgb(10,191,225)" stroke="rgb(10,191,225)" stroke-width="1" opacity="0.9882352941176471" d="M 544.5 418 L 544 419.5 L 544.5 425 L 545.5 422 L 546.5 425 L 547.5 423 L 548 424.5 L 547 426.5 L 548.5 426 L 550 426.5 L 548 427 L 549 429.5 L 548 433 Q 545 432 546 435 L 548.5 434 L 549.5 435 L 552 433.5 L 549 440.5 L 550.5 440 L 555 441.5 L 552.5 442 L 550.5 441 L 549 443.5 L 550.5 443 L 552 443.5 L 550 444 L 551.5 447 L 553 446.5 L 552 450.5 L 553.5 450 L 555.5 449 L 554 451.5 L 553 453.5 L 554.5 454 L 558 453.5 Q 556.3 457.8 554.5 455 Q 550.3 453.7 552 458.5 L 553 458.5 Q 552.2 455.9 555.5 457 L 554.5 459 Q 552.3 458.3 553 460.5 L 552 460.5 L 551.5 459 L 551 462 L 553.5 463 L 556 462.5 L 556.5 461 L 557.5 463 L 555 464.5 L 555 466.5 L 555.5 468 Q 557.7 462.8 560 466.5 L 557 467.5 L 557.5 469 L 555.5 469 L 552 469 L 552 475.5 L 550.5 476 L 550.5 477 L 554 478.5 L 552 478.5 L 551 482.5 L 553 483.5 Q 552.3 481.3 554.5 482 L 557 480.5 L 544.5 494 Q 542.3 493.3 543 495.5 L 534 503.5 L 518 521.5 L 518.5 523 L 517.5 522 L 482.5 557 L 473.5 562 Q 468.8 560.8 467.5 563 Q 466 560.5 460.5 562 L 459 562.5 L 459.5 561 L 453.5 558 L 425 529.5 Q 425.8 527.3 423.5 528 L 360 464.5 L 354 452.5 L 354 440.5 L 358.5 432 Q 361.1 432.8 360 429.5 Q 368 420 385.5 420 L 393.5 422 L 400.5 426 L 413 438.5 Q 412.3 440.8 414.5 440 L 421 448 L 429 454.5 Q 428.3 456.8 430.5 456 L 437 464 L 438.5 464 L 453 478.5 Q 452.3 480.8 454.5 480 L 467.5 493 L 469 491.5 L 468.5 490 L 469.5 491 L 474 486.5 L 473.5 485 L 475.5 485 L 503.5 458 L 505 458 L 512.5 449 L 515 447.5 L 519.5 442 L 523 439.5 L 527.5 434 L 533 429.5 L 535.5 426 L 544.5 418 Z M 543 421 L 542 423 L 540 424 L 542 425 L 541 425 L 539 425 Q 538 427 541 426 L 542 428 L 543 426 L 543 429 L 542 432 L 546 433 L 545 431 L 548 430 L 547 429 L 547 428 L 545 426 L 543 421 Z M 538 427 L 538 430 Q 541 429 538 427 Z M 540 430 L 541 432 Q 542 429 540 430 Z M 543 433 L 544 435 Q 545 432 543 433 Z M 540 435 L 541 437 Q 542 434 540 435 Z M 549 436 L 546 438 L 549 438 L 549 436 Z M 543 437 L 544 439 L 545 439 L 543 437 Z M 548 456 L 547 458 L 550 458 L 548 456 Z M 551 462 L 549 464 L 551 464 L 551 462 Z M 553 464 L 554 468 L 555 466 L 553 464 Z " /><path fill="rgb(10,191,225)" stroke="rgb(10,191,225)" stroke-width="1" opacity="0.9882352941176471" d="M 553.5 425 L 554.5 427 L 553.5 425 Z " /><path fill="rgb(10,191,225)" stroke="rgb(10,191,225)" stroke-width="1" opacity="0.9882352941176471" d="M 553.5 438 L 554.5 440 L 553.5 438 Z " /><path fill="rgb(10,191,225)" stroke="rgb(10,191,225)" stroke-width="1" opacity="0.9882352941176471" d="M 575.5 460 L 573.5 463 L 575.5 460 Z " /><path fill="rgb(10,191,225)" stroke="rgb(10,191,225)" stroke-width="1" opacity="0.9882352941176471" d="M 553 470 L 555 470.5 L 553 471.5 L 553 470 Z " /><path fill="rgb(10,191,225)" stroke="rgb(10,191,225)" stroke-width="1" opacity="0.9882352941176471" d="M 563 472 L 565 472.5 L 561 475.5 L 563 472 Z " /><path fill="rgb(10,191,225)" stroke="rgb(10,191,225)" stroke-width="1" opacity="0.9882352941176471" d="M 553.5 474 L 556 475.5 L 554.5 475 L 553.5 474 Z " /><path fill="rgb(10,191,225)" stroke="rgb(10,191,225)" stroke-width="1" opacity="0.9882352941176471" d="M 559.5 476 L 557.5 479 L 556 478.5 L 559.5 476 Z " /><path fill="rgb(10,191,225)" stroke="rgb(10,191,225)" stroke-width="1" opacity="0.9882352941176471" d="M 178.5 483 L 179 487.5 L 178 487.5 L 178.5 483 Z " /><path fill="rgb(10,191,225)" stroke="rgb(10,191,225)" stroke-width="1" opacity="0.9882352941176471" d="M 781.5 640 L 782.5 642 L 781.5 640 Z " /><path fill="rgb(10,191,225)" stroke="rgb(10,191,225)" stroke-width="1" opacity="0.9882352941176471" d="M 658.5 680 L 659.5 682 L 658.5 680 Z " /><path fill="rgb(10,191,225)" stroke="rgb(10,191,225)" stroke-width="1" opacity="0.9882352941176471" d="M 501.5 722 L 500.5 724 L 501.5 722 Z " /><path fill="rgb(10,191,225)" stroke="rgb(10,191,225)" stroke-width="1" opacity="0.9882352941176471" d="M 504.5 723 L 509 723.5 L 504.5 724 L 504.5 723 Z " /><path fill="rgb(10,191,225)" stroke="rgb(10,191,225)" stroke-width="1" opacity="0.9882352941176471" d="M 509.5 740 L 512 741.5 L 510.5 741 L 509.5 740 Z " /><path fill="rgb(10,191,225)" stroke="rgb(10,191,225)" stroke-width="1" opacity="0.9882352941176471" d="M 505.5 746 L 506.5 748 L 505.5 746 Z " /><path fill="rgb(10,191,225)" stroke="rgb(10,191,225)" stroke-width="1" opacity="0.9882352941176471" d="M 515.5 748 L 514.5 750 L 515.5 748 Z " /><path fill="rgb(10,191,225)" stroke="rgb(10,191,225)" stroke-width="1" opacity="0.9882352941176471" d="M 504.5 754 L 510 754.5 L 508.5 756 L 505.5 755 L 504.5 754 Z " /><path fill="rgb(10,191,225)" stroke="rgb(10,191,225)" stroke-width="1" opacity="0.9882352941176471" d="M 402.5 757 L 403.5 759 L 402.5 757 Z " /><path fill="rgb(10,191,225)" stroke="rgb(10,191,225)" stroke-width="1" opacity="0.9882352941176471" d="M 505.5 759 Q 507.8 758.3 507 760.5 L 505.5 759 Z " /><path fill="rgb(10,191,225)" stroke="rgb(10,191,225)" stroke-width="1" opacity="0.9882352941176471" d="M 508.5 763 L 508 764.5 L 506.5 768 L 507 766.5 L 508.5 763 Z " /><path fill="rgb(10,191,225)" stroke="rgb(10,191,225)" stroke-width="1" opacity="0.9882352941176471" d="M 499 766 L 501 766.5 L 499 767.5 L 499 766 Z " /><path fill="rgb(10,191,225)" stroke="rgb(10,191,225)" stroke-width="1" opacity="0.9882352941176471" d="M 503.5 772 L 521 772.5 L 503.5 773 L 503.5 772 Z " /><path fill="rgb(10,191,225)" stroke="rgb(10,191,225)" stroke-width="1" opacity="0.9882352941176471" d="M 522.5 772 L 525 772.5 L 522.5 773 L 522.5 772 Z " /><path fill="rgb(28,212,199)" stroke="rgb(28,212,199)" stroke-width="1" opacity="0.9921568627450981" d="M 482.5 156 L 485 156.5 L 482.5 157 L 482.5 156 Z " /><path fill="rgb(28,212,199)" stroke="rgb(28,212,199)" stroke-width="1" opacity="0.9921568627450981" d="M 500.5 156 L 503 156.5 L 500.5 157 L 500.5 156 Z " /><path fill="rgb(28,212,199)" stroke="rgb(28,212,199)" stroke-width="1" opacity="0.9921568627450981" d="M 520.5 156 L 529 156.5 L 520.5 157 L 520.5 156 Z " /><path fill="rgb(28,212,199)" stroke="rgb(28,212,199)" stroke-width="1" opacity="0.9921568627450981" d="M 548.5 158 L 550 158.5 L 546.5 160 L 546.5 159 L 548.5 158 Z " /><path fill="rgb(28,212,199)" stroke="rgb(28,212,199)" stroke-width="1" opacity="0.9921568627450981" d="M 536.5 159 L 539 159.5 L 536.5 160 L 536.5 159 Z " /><path fill="rgb(28,212,199)" stroke="rgb(28,212,199)" stroke-width="1" opacity="0.9921568627450981" d="M 568 161 L 574 162 Q 572.6 165.7 578.5 164 L 580 163.5 Q 579.2 166.1 582.5 165 L 586.5 164 L 632.5 178 L 675.5 198 Q 719.6 222.9 753 258.5 Q 772.2 278.3 787.5 302 Q 789.8 302.8 789 300.5 L 788.5 299 L 790 299.5 L 791 297.5 L 790.5 296 L 792 296.5 L 804 276.5 L 808.5 272 L 816.5 270 L 822.5 272 L 825 274.5 L 828 281.5 L 828 392.5 Q 826.5 399.5 821.5 403 Q 817.9 405.9 810.5 405 L 798.5 400 L 797 400.5 Q 797.8 398.3 795.5 399 L 726.5 371 Q 719.2 368.8 715 363.5 Q 712.3 359.7 714 351.5 L 721.5 343 L 738 332.5 L 737.5 331 L 739.5 332 L 740.5 329 L 742.5 330 Q 745.3 328.8 743 327.5 L 742 325.5 Q 744.5 324 741 322.5 Q 723.6 297.4 700.5 278 L 679.5 261 L 653.5 244 L 628.5 231 L 601.5 220 L 599.5 220 L 588 216.5 L 588.5 215 L 585.5 216 L 585.5 214 L 583.5 215 L 583 213 L 578.5 214 L 578 212 L 572.5 213 L 569 212 Q 570.1 209.3 567.5 210 L 566 210.5 L 566.5 209 L 556.5 210 L 556.5 209 L 566 208 L 567 204.5 L 564.5 203 L 562.5 204 L 560 203.5 Q 561.3 200.7 562.5 203 L 564 202.5 L 563.5 201 L 566.5 203 L 571 202 L 572 199.5 L 569 198.5 L 569 196.5 L 567 190.5 L 570.5 188 L 571 190 Q 568.3 188.9 569 191.5 L 571.5 192 L 573.5 190 L 576 191.5 L 574.5 189 Q 571.5 189.9 573 185.5 L 570 183.5 L 572 183 Q 573.5 179.2 570.5 180 L 571 178.5 Q 571.8 176.3 569.5 177 L 568 177.5 L 572 176 L 573 173.5 L 573 171.5 Q 574.8 165.4 567.5 168 L 565.5 168 L 563.5 167 L 561.5 167 L 558 164.5 L 561 165.5 L 560 162.5 L 561.5 163 L 565.5 162 L 568 163 L 568 161 Z M 570 162 L 570 163 L 572 163 L 570 162 Z M 565 165 L 566 167 Q 567 164 565 165 Z M 575 172 L 576 173 L 577 174 Q 578 171 575 172 Z M 573 174 Q 572 177 575 176 L 576 177 Q 577 172 573 174 Z M 576 178 L 575 180 L 573 181 Q 575 184 576 181 L 576 178 Z M 574 182 L 572 184 L 574 185 L 574 182 Z M 577 182 L 578 184 Q 579 181 577 182 Z M 576 183 L 575 185 Q 573 186 576 187 L 578 186 L 576 185 L 576 183 Z M 581 189 L 581 191 L 583 190 L 581 189 Z M 570 193 L 570 197 L 571 197 L 570 193 Z M 569 203 L 567 207 L 569 207 L 570 205 L 570 207 L 570 208 L 574 208 L 572 207 L 573 204 L 572 204 L 569 203 Z " /><path fill="rgb(28,212,199)" stroke="rgb(28,212,199)" stroke-width="1" opacity="0.9921568627450981" d="M 567 172 L 569 172.5 L 567.5 176 L 567 172 Z " /><path fill="rgb(28,212,199)" stroke="rgb(28,212,199)" stroke-width="1" opacity="0.9921568627450981" d="M 560.5 179 L 563 179.5 L 560.5 180 L 560.5 179 Z " /><path fill="rgb(28,212,199)" stroke="rgb(28,212,199)" stroke-width="1" opacity="0.9921568627450981" d="M 568.5 180 L 569.5 182 L 567.5 182 L 566 181.5 L 568.5 180 Z " /><path fill="rgb(28,212,199)" stroke="rgb(28,212,199)" stroke-width="1" opacity="0.9921568627450981" d="M 561.5 192 L 560.5 194 L 561.5 192 Z " /><path fill="rgb(28,212,199)" stroke="rgb(28,212,199)" stroke-width="1" opacity="0.9921568627450981" d="M 562.5 196 L 561.5 198 L 562.5 196 Z " /><path fill="rgb(28,212,199)" stroke="rgb(28,212,199)" stroke-width="1" opacity="0.9921568627450981" d="M 567.5 196 L 568 197.5 Q 565.8 198.8 568.5 200 L 570 200.5 L 568.5 201 L 566 200.5 L 567 199.5 L 565.5 197 L 567 197.5 L 567.5 196 Z " /><path fill="rgb(28,212,199)" stroke="rgb(28,212,199)" stroke-width="1" opacity="0.9921568627450981" d="M 560.5 199 L 561.5 201 Q 558.7 201.7 560.5 199 Z " /><path fill="rgb(28,212,199)" stroke="rgb(28,212,199)" stroke-width="1" opacity="0.9921568627450981" d="M 549.5 208 L 553 208.5 L 549.5 209 L 549.5 208 Z " /><path fill="rgb(28,212,199)" stroke="rgb(28,212,199)" stroke-width="1" opacity="0.9921568627450981" d="M 785.5 296 L 788 296.5 Q 785.9 299.8 785.5 296 Z " /><path fill="rgb(28,212,199)" stroke="rgb(28,212,199)" stroke-width="1" opacity="0.9921568627450981" d="M 641.5 330 L 651.5 331 L 662.5 338 L 664 337.5 Q 661.5 339 665 340.5 L 670 351.5 L 670 360.5 L 666 369.5 L 645 391.5 L 645.5 393 L 644.5 392 L 640 396.5 L 640.5 398 L 639.5 397 L 613 423.5 Q 613.8 425.8 611.5 425 L 568.5 470 L 566 471.5 L 550.5 488 L 549 485.5 L 550 485.5 L 550.5 487 L 553 484.5 Q 549.5 483 552 481.5 L 553 477.5 L 550.5 477 L 550.5 479 Q 547.5 477.5 550.5 476 L 552 475.5 L 552 469 L 555.5 469 L 555 467.5 L 554.5 466 L 553.5 468 L 552.5 465 L 551 465.5 L 553.5 464 Q 554.8 466.3 556 463.5 L 552.5 462 L 549.5 464 L 551 461.5 L 552 455.5 L 551 455.5 L 549.5 458 Q 546.2 459.1 547 456.5 L 548.5 457 Q 550.8 457.8 550 455.5 Q 551.3 452.8 552.5 455 L 555 454.5 L 551 451.5 L 552 447.5 L 550 448.5 L 549.5 450 L 549 448.5 Q 551.5 447 548 445.5 L 550 441.5 L 549 438 L 546 437.5 L 548.5 436 L 549.5 438 L 551 434.5 L 547.5 435 Q 544.9 435.7 546 433 L 544 433 L 545 435.5 L 542 433.5 L 544 432.5 L 542 431.5 L 543 428.5 L 542.5 426 L 541.5 428 L 541 426 Q 538.3 427.1 539 424.5 L 536 425.5 L 549.5 412 L 551 412 L 551 410.5 L 625.5 336 L 632.5 332 L 641.5 330 Z M 544 419 L 542 421 L 543 425 L 544 425 L 544 419 Z M 542 421 L 540 423 L 542 423 L 542 421 Z M 546 422 L 544 426 L 546 426 L 547 427 L 546 422 Z M 548 427 L 546 429 L 548 429 L 548 427 Z M 548 430 L 546 432 Q 545 434 548 433 L 548 430 Z M 553 441 L 553 442 L 555 442 L 553 441 Z M 554 450 Q 551 452 554 453 L 555 451 L 554 450 Z M 553 457 L 553 459 L 556 458 L 553 457 Z M 557 461 Q 555 464 558 463 L 557 461 Z M 553 470 L 553 472 L 555 471 L 553 470 Z M 563 472 L 563 474 L 565 473 L 563 472 Z M 553 482 L 553 484 L 555 483 L 553 482 Z " /><path fill="rgb(28,212,199)" stroke="rgb(28,212,199)" stroke-width="1" opacity="0.9921568627450981" d="M 786.5 397 L 787.5 399 L 786.5 397 Z " /><path fill="rgb(28,212,199)" stroke="rgb(28,212,199)" stroke-width="1" opacity="0.9921568627450981" d="M 537.5 427 Q 540.5 428.5 537.5 430 L 537.5 427 Z " /><path fill="rgb(28,212,199)" stroke="rgb(28,212,199)" stroke-width="1" opacity="0.9921568627450981" d="M 532.5 429 L 528.5 434 L 532.5 429 Z " /><path fill="rgb(28,212,199)" stroke="rgb(28,212,199)" stroke-width="1" opacity="0.9921568627450981" d="M 539.5 430 Q 541.8 429.3 541 431.5 L 539.5 430 Z " /><path fill="rgb(28,212,199)" stroke="rgb(28,212,199)" stroke-width="1" opacity="0.9921568627450981" d="M 539.5 435 Q 541.8 434.3 541 436.5 L 539.5 435 Z " /><path fill="rgb(28,212,199)" stroke="rgb(28,212,199)" stroke-width="1" opacity="0.9921568627450981" d="M 542.5 437 L 545 438.5 L 543.5 439 L 542.5 437 Z " /><path fill="rgb(28,212,199)" stroke="rgb(28,212,199)" stroke-width="1" opacity="0.9921568627450981" d="M 522.5 439 L 520.5 442 L 522.5 439 Z " /><path fill="rgb(28,212,199)" stroke="rgb(28,212,199)" stroke-width="1" opacity="0.9921568627450981" d="M 544.5 445 L 545.5 447 L 544.5 445 Z " /><path fill="rgb(28,212,199)" stroke="rgb(28,212,199)" stroke-width="1" opacity="0.9921568627450981" d="M 514.5 447 L 513.5 449 L 514.5 447 Z " /><path fill="rgb(28,212,199)" stroke="rgb(28,212,199)" stroke-width="1" opacity="0.9921568627450981" d="M 806.5 450 Q 818.7 448.4 824.5 453 L 826 452.5 L 825.5 454 L 832.5 460 L 834 459.5 L 833 461.5 L 837 468.5 L 837 489.5 L 836 490.5 L 835 509.5 L 835.5 511 L 834 510.5 L 832 526.5 L 832.5 528 L 831 527.5 L 828 543.5 L 828.5 545 L 827 544.5 L 826 550.5 L 816 578.5 L 796 617.5 Q 776.4 649.9 750 675.5 L 750.5 677 L 749.5 676 L 739.5 686 Q 696.2 725.7 637.5 750 L 618.5 757 L 589.5 765 L 569.5 768 L 563.5 770 L 535.5 772 Q 534 769.5 532.5 773 L 527.5 772 L 525.5 773 L 522.5 772 L 520.5 772 L 503.5 772 L 500.5 773 L 498.5 772 L 495.5 773 L 492 772.5 L 495 771.5 Q 494 769 489.5 770 L 487.5 770 L 479 769.5 Q 480 767 484.5 768 L 486.5 768 Q 492 769.5 493.5 767 L 495.5 767 L 497.5 768 L 498 766.5 Q 494.9 765 495.5 760 L 494 763.5 L 494.5 765 L 492 759.5 L 493.5 759 Q 494.8 761.3 496 758.5 L 495.5 756 L 494 755.5 L 496.5 754 Q 497.8 756.3 499 753.5 L 496 752.5 L 495.5 751 L 494 751.5 Q 495.3 748.8 496.5 751 L 499.5 752 L 502.5 751 L 504 750.5 L 498.5 742 L 497 744.5 L 499 744.5 L 495.5 746 L 493 745.5 L 496 744.5 L 495 739.5 L 497 736.5 L 496.5 735 L 498 734.5 L 496 734 L 494.5 731 Q 491.7 732.3 494 733.5 L 491 736.5 L 491.5 738 L 490 736.5 L 493 733.5 L 492 732.5 L 493 730.5 L 490.5 728 L 488.5 728 Q 483 726.5 481.5 729 L 479 725.5 L 481 724.5 L 479 723.5 L 485.5 723 L 487.5 723 Q 489.8 722.3 489 724.5 L 491 723.5 L 490.5 722 Q 495.2 720.7 496.5 723 L 500.5 722 Q 502.8 724.7 508.5 724 L 513.5 723 L 515.5 723 L 523.5 723 L 524.5 724 L 525 722 L 537.5 722 L 538.5 723 L 540.5 721 L 563.5 719 L 586.5 714 L 590.5 712 L 594.5 712 L 634.5 697 Q 660.3 684.3 682.5 668 Q 706 650.5 725 628.5 Q 747.1 604.1 762 572.5 L 761.5 571 L 763 571.5 L 772 549.5 L 771.5 548 L 773 548.5 L 778 534.5 L 784 510.5 L 784 504.5 L 787 489.5 L 788 467.5 Q 790.4 458.4 797.5 454 L 801 452.5 L 800.5 451 L 802.5 452 L 806.5 450 Z M 495 725 L 494 730 L 496 731 L 498 731 Q 499 728 497 729 L 495 725 Z M 501 736 L 499 742 Q 501 740 503 743 L 504 742 L 502 741 L 501 736 Z M 506 737 L 505 739 L 507 740 L 506 737 Z M 508 740 L 507 743 L 508 743 L 508 740 Z M 502 753 L 501 755 L 500 754 L 497 758 L 497 760 L 499 760 Q 501 759 499 758 L 501 757 L 502 758 L 502 753 Z M 505 754 L 506 755 L 509 756 L 510 755 L 505 754 Z M 506 759 L 507 761 Q 508 758 506 759 Z M 500 760 L 498 763 L 500 762 L 500 760 Z M 501 762 L 499 765 L 503 765 L 501 764 L 501 762 Z M 508 764 L 507 767 L 508 767 L 508 764 Z M 499 766 L 499 768 L 501 767 L 499 766 Z " /><path fill="rgb(28,212,199)" stroke="rgb(28,212,199)" stroke-width="1" opacity="0.9921568627450981" d="M 535.5 502 L 534.5 504 L 535.5 502 Z " /><path fill="rgb(28,212,199)" stroke="rgb(28,212,199)" stroke-width="1" opacity="0.9921568627450981" d="M 382.5 692 L 383.5 694 L 382.5 692 Z " /><path fill="rgb(28,212,199)" stroke="rgb(28,212,199)" stroke-width="1" opacity="0.9921568627450981" d="M 390.5 696 L 391.5 698 L 390.5 696 Z " /><path fill="rgb(28,212,199)" stroke="rgb(28,212,199)" stroke-width="1" opacity="0.9921568627450981" d="M 432.5 711 L 436 712.5 L 433.5 713 L 432.5 711 Z " /><path fill="rgb(28,212,199)" stroke="rgb(28,212,199)" stroke-width="1" opacity="0.9921568627450981" d="M 441.5 714 L 444 714.5 L 441.5 715 L 441.5 714 Z " /><path fill="rgb(28,212,199)" stroke="rgb(28,212,199)" stroke-width="1" opacity="0.9921568627450981" d="M 445.5 715 L 449 715.5 L 445.5 716 L 445.5 715 Z " /><path fill="rgb(28,212,199)" stroke="rgb(28,212,199)" stroke-width="1" opacity="0.9921568627450981" d="M 451.5 716 Q 453.8 715.3 453 717.5 L 450 719 L 451.5 716 Z " /><path fill="rgb(28,212,199)" stroke="rgb(28,212,199)" stroke-width="1" opacity="0.9921568627450981" d="M 471.5 720 L 476.5 721 L 478 720.5 Q 476.7 723.3 475.5 721 Q 470.5 722 471.5 720 Z " /><path fill="rgb(28,212,199)" stroke="rgb(28,212,199)" stroke-width="1" opacity="0.9921568627450981" d="M 479.5 721 L 488 721.5 L 479.5 722 L 479.5 721 Z " /><path fill="rgb(28,212,199)" stroke="rgb(28,212,199)" stroke-width="1" opacity="0.9921568627450981" d="M 463.5 725 Q 465.8 724.3 465 726.5 L 463.5 725 Z " /><path fill="rgb(28,212,199)" stroke="rgb(28,212,199)" stroke-width="1" opacity="0.9921568627450981" d="M 490.5 730 L 490.5 733 Q 489.3 730.8 488 733.5 L 489 735.5 L 488 735.5 L 487 733.5 L 488 731 L 490.5 730 Z " /><path fill="rgb(28,212,199)" stroke="rgb(28,212,199)" stroke-width="1" opacity="0.9921568627450981" d="M 485.5 735 L 484.5 737 L 483 736.5 L 485.5 735 Z " /><path fill="rgb(28,212,199)" stroke="rgb(28,212,199)" stroke-width="1" opacity="0.9921568627450981" d="M 488.5 742 L 487.5 744 L 488.5 742 Z " /><path fill="rgb(28,212,199)" stroke="rgb(28,212,199)" stroke-width="1" opacity="0.9921568627450981" d="M 491.5 742 L 494 742.5 Q 491.9 745.8 491.5 742 Z " /><path fill="rgb(28,212,199)" stroke="rgb(28,212,199)" stroke-width="1" opacity="0.9921568627450981" d="M 481.5 743 L 480.5 745 L 481.5 743 Z " /><path fill="rgb(28,212,199)" stroke="rgb(28,212,199)" stroke-width="1" opacity="0.9921568627450981" d="M 490.5 745 Q 492.8 744.3 492 746.5 L 489 746.5 L 490.5 745 Z " /><path fill="rgb(28,212,199)" stroke="rgb(28,212,199)" stroke-width="1" opacity="0.9921568627450981" d="M 499.5 746 L 499 747.5 L 497.5 750 L 496.5 748 L 498 748.5 L 499.5 746 Z " /><path fill="rgb(28,212,199)" stroke="rgb(28,212,199)" stroke-width="1" opacity="0.9921568627450981" d="M 484.5 752 L 485.5 754 L 484.5 752 Z " /><path fill="rgb(28,212,199)" stroke="rgb(28,212,199)" stroke-width="1" opacity="0.9921568627450981" d="M 491.5 753 L 492 754.5 L 489.5 756 L 489.5 755 Q 492 755.7 491.5 753 Z " /><path fill="rgb(28,212,199)" stroke="rgb(28,212,199)" stroke-width="1" opacity="0.9921568627450981" d="M 421.5 760 L 424 760.5 L 421.5 761 L 421.5 760 Z " /><path fill="rgb(28,212,199)" stroke="rgb(28,212,199)" stroke-width="1" opacity="0.9921568627450981" d="M 488 760 L 490 760.5 L 488.5 764 L 488 760 Z " /><path fill="rgb(28,212,199)" stroke="rgb(28,212,199)" stroke-width="1" opacity="0.9921568627450981" d="M 436.5 764 L 440 764.5 L 436.5 765 L 436.5 764 Z " /><path fill="rgb(28,212,199)" stroke="rgb(28,212,199)" stroke-width="1" opacity="0.9921568627450981" d="M 453.5 766 L 454.5 768 Q 451.7 768.7 453.5 766 Z " /><path fill="rgb(28,212,199)" stroke="rgb(28,212,199)" stroke-width="1" opacity="0.9921568627450981" d="M 461.5 768 L 463.5 769 L 466.5 768 L 466.5 769 L 463.5 770 L 461.5 768 Z " /><path fill="rgb(28,212,199)" stroke="rgb(28,212,199)" stroke-width="1" opacity="0.9921568627450981" d="M 470.5 768 L 473 768.5 L 470.5 769 L 470.5 768 Z " /><path fill="rgb(11,155,193)" stroke="rgb(11,155,193)" stroke-width="1" opacity="0.8941176470588236" d="M 479.5 155 L 533.5 155 L 534.5 156 L 544.5 156 L 545.5 157 L 567.5 159 L 577 161.5 L 572.5 162 L 558.5 159 L 542.5 158 L 541.5 157 L 529.5 157 L 528.5 156 L 482.5 156 L 481.5 157 L 456.5 159 L 434.5 163 L 399.5 173 L 400.5 171 L 432.5 162 L 461.5 157 L 478.5 156 L 479.5 155 Z " /><path fill="rgb(11,155,193)" stroke="rgb(11,155,193)" stroke-width="1" opacity="0.8941176470588236" d="M 578.5 161 L 606.5 168 L 612 170.5 L 609.5 171 L 602.5 168 L 578 163 L 578.5 161 Z " /><path fill="rgb(11,155,193)" stroke="rgb(11,155,193)" stroke-width="1" opacity="0.8941176470588236" d="M 613.5 171 L 630.5 176 L 654.5 186 L 682 201.5 L 680.5 201 L 649.5 185 L 613.5 172 L 613.5 171 Z " /><path fill="rgb(11,155,193)" stroke="rgb(11,155,193)" stroke-width="1" opacity="0.8941176470588236" d="M 397.5 172 L 398 174 L 379.5 180 L 359.5 189 L 324.5 209 Q 289 232.5 261 263.5 Q 240.3 286.3 224 313.5 Q 208.9 338.4 198 367.5 L 190 392.5 L 183 426.5 L 182 447.5 L 181 448.5 L 181 487.5 L 182 488.5 L 182 497.5 L 183 498.5 L 185 516.5 L 184 516.5 L 181 500.5 L 180 472.5 L 179 471.5 L 180 470.5 L 180 442.5 L 181 441.5 L 181 432.5 L 182 431.5 L 182 424.5 L 185 412.5 L 185 407.5 L 197 366.5 L 211 334.5 L 210.5 333 L 212 333.5 L 226 308.5 L 225.5 307 L 227 307.5 L 240 287 Q 242.7 288.1 242 285.5 L 241.5 284 L 242.5 285 L 246 281.5 L 251 273.5 L 280 242.5 L 279.5 241 L 281.5 242 L 290.5 233 L 322 209.5 L 321.5 208 L 323.5 209 L 343.5 196 Q 368.6 182.1 397.5 172 Z " /><path fill="rgb(11,155,193)" stroke="rgb(11,155,193)" stroke-width="1" opacity="0.8941176470588236" d="M 683.5 202 L 700.5 212 L 735 239.5 Q 734.3 241.8 736.5 241 L 744.5 249 L 746 248.5 L 745 249.5 L 759 263.5 L 787.5 300 Q 789.8 300.8 789 298.5 L 804 274 L 810.5 270 L 817.5 269 Q 824 270.5 827 275.5 L 829 280.5 L 829 392.5 Q 827.6 400.6 821.5 404 Q 817.9 406.9 810.5 406 L 803 402.5 L 804.5 402 Q 808 406 816.5 405 Q 822.3 403.8 825 399.5 L 828 392.5 L 828 281.5 Q 827.1 274.9 822.5 272 L 813.5 270 Q 807 271.5 804 276.5 L 789 302 L 786 300.5 Q 765.2 268.3 737.5 243 L 717.5 226 L 684.5 204 L 683.5 202 Z " /><path fill="rgb(11,155,193)" stroke="rgb(11,155,193)" stroke-width="1" opacity="0.8941176470588236" d="M 488.5 206 L 526.5 206 L 527.5 207 L 555.5 209 L 587.5 216 L 606 222.5 L 603.5 223 L 586.5 217 L 553.5 210 L 525.5 208 L 524.5 207 L 488.5 207 L 488.5 206 Z " /><path fill="rgb(11,155,193)" stroke="rgb(11,155,193)" stroke-width="1" opacity="0.8941176470588236" d="M 474.5 207 L 486 207.5 L 450.5 212 L 408.5 224 L 365.5 244 L 340 261.5 L 340.5 263 L 338.5 262 L 331 267 L 329.5 270 L 326 271 L 323.5 275 L 311 285.5 Q 311.8 287.8 309.5 287 L 308 290 L 305 291.5 Q 305.8 293.8 303.5 293 L 301 297 L 295 301.5 L 291.5 307 L 289 308.5 L 288 311.5 L 277 324.5 L 277 326.5 L 277.5 328 L 275 327 L 255 363.5 L 244 392.5 L 237 419.5 L 237 424.5 L 234 437.5 L 233 462.5 L 232 463.5 L 233 467.5 L 232 471.5 L 233 472.5 L 233 494.5 L 235 503.5 L 235 511.5 L 241 536.5 Q 247.9 559.1 258 578.5 L 269 595.5 L 271 601 L 273 601 L 273 604 Q 275.7 602.9 275 605.5 L 284 617.5 L 287 624.5 Q 289.6 632.4 288 644.5 L 284 660.5 L 280 685.5 L 278 690.5 L 278 695.5 L 276 700.5 L 276 705.5 L 273 715.5 L 273 721 L 291 713.5 L 289 712.5 L 290.5 712 L 292.5 713 L 350.5 687 L 365.5 685 L 376.5 688 L 394.5 697 L 420.5 707 L 450.5 715 L 470 718.5 L 464.5 719 L 444.5 715 L 408.5 704 L 373.5 688 L 355.5 687 L 271 723 L 279 678.5 L 281 673.5 L 285 647.5 L 287 642.5 L 287 629.5 L 283 618.5 L 260 584.5 L 247 557.5 L 239 534.5 L 232 497.5 L 231 455.5 L 232 454.5 L 232 443.5 L 233 442.5 L 233 435.5 L 237 413.5 Q 242.6 388.6 252 367.5 Q 276.7 312.7 319.5 276 L 356.5 248 L 390.5 230 L 413.5 221 L 436.5 214 L 474.5 207 Z " /><path fill="rgb(11,155,193)" stroke="rgb(11,155,193)" stroke-width="1" opacity="0.8941176470588236" d="M 607.5 223 Q 642.2 234.8 669.5 254 Q 702.3 276.3 728 305.5 L 745 327.5 L 721.5 343 L 715 349.5 Q 712.3 353.3 714 361.5 L 718.5 367 L 726 370.5 L 723.5 371 L 716 367 L 713 361.5 Q 714.3 356.8 712 355.5 Q 713.2 347.7 718.5 344 L 725 339.5 L 724.5 338 L 726.5 339 L 744 328 Q 728.5 305.8 708.5 287 L 681.5 265 L 680 265.5 L 681 264.5 L 677.5 261 L 647.5 242 Q 630 231.5 608.5 225 L 607.5 223 Z " /><path fill="rgb(11,155,193)" stroke="rgb(11,155,193)" stroke-width="1" opacity="0.8941176470588236" d="M 640.5 329 L 654.5 331 L 667 341.5 Q 672.7 347.8 671 361.5 Q 668.2 370.7 661.5 376 L 659 377.5 L 634.5 404 Q 632.3 403.3 633 405.5 L 614 423.5 L 599 439.5 L 599 441 L 593 445.5 Q 593.8 447.8 591.5 447 L 577 462.5 L 577.5 464 L 576.5 463 L 558 481.5 L 556.5 484 Q 554.3 483.3 555 485.5 L 513.5 528 L 511 529.5 Q 511.8 531.8 509.5 531 L 501.5 540 Q 499.3 539.3 500 541.5 L 487.5 554 L 486 554 L 484.5 557 Q 478.6 564.1 465.5 564 L 462.5 563 L 461 562.5 L 466.5 562 L 468.5 562 L 473.5 562 L 482.5 557 L 527 512.5 L 567.5 470 L 572 466.5 L 611.5 425 Q 613.8 425.8 613 423.5 L 666 369.5 L 670 360.5 L 670 351.5 Q 667.6 341.4 660.5 336 L 651.5 331 L 641.5 330 L 632.5 332 L 625.5 336 L 467.5 493 L 400.5 426 Q 395.4 421.2 387 421 L 387.5 419 Q 396.8 420.7 402.5 426 L 421.5 445 L 423 444.5 L 422 445.5 L 449.5 473 L 451 472.5 L 450 473.5 L 465.5 489 L 467 488.5 Q 464.8 489.8 467.5 491 L 470.5 489 L 483 476.5 L 482.5 475 L 483.5 476 L 492.5 467 Q 494.8 467.8 494 465.5 L 508.5 451 L 510 451 L 509 448.5 L 511.5 448 Q 513.8 448.8 513 446.5 L 527 433.5 L 534 425.5 L 533.5 424 L 535.5 424 L 540 420.5 L 541.5 418 L 545 415.5 L 546.5 413 Q 548.8 413.8 548 411.5 L 557.5 402 L 559 402 L 559 400 L 561 400 L 561 398 Q 563.7 399.1 563 396.5 Q 567.3 394.3 565.5 392 L 566.5 393 L 575.5 384 Q 577.8 384.8 577 382.5 L 594.5 365 L 596 365 L 599.5 360 L 604 356.5 L 610.5 349 L 615 345.5 L 616.5 343 Q 619.1 343.7 618 341 L 620 341 L 620 339.5 Q 627.2 331.2 640.5 329 Z " /><path fill="rgb(11,155,193)" stroke="rgb(11,155,193)" stroke-width="1" opacity="0.8941176470588236" d="M 727.5 371 L 797 399.5 L 795.5 400 L 735.5 375 L 730.5 374 L 727.5 371 Z " /><path fill="rgb(11,155,193)" stroke="rgb(11,155,193)" stroke-width="1" opacity="0.8941176470588236" d="M 798.5 400 L 802 401.5 L 800.5 402 L 798.5 400 Z " /><path fill="rgb(11,155,193)" stroke="rgb(11,155,193)" stroke-width="1" opacity="0.8941176470588236" d="M 376.5 419 L 386 419.5 L 371.5 422 L 360 429.5 L 354 440.5 L 354 452.5 L 360 464.5 L 453.5 558 L 460 561.5 L 458.5 562 L 449 555.5 L 445.5 551 L 442.5 549 L 438.5 544 L 432 538.5 L 429.5 535 L 424 530.5 L 422.5 528 L 418 524.5 Q 418.7 521.9 416 523 L 416 521 L 414.5 521 L 390.5 496 L 385 491.5 Q 385.8 489.3 383.5 490 L 368 474.5 L 368 473 L 361 467.5 L 354 457.5 L 352 450.5 L 352 443.5 Q 354.6 430.1 364.5 424 L 376.5 419 Z " /><path fill="rgb(11,155,193)" stroke="rgb(11,155,193)" stroke-width="1" opacity="0.8941176470588236" d="M 806.5 449 L 817.5 449 L 820 450.5 L 818.5 451 L 817.5 450 L 806.5 450 Q 796.3 452.8 791 460.5 L 788 467.5 L 787 489.5 L 781 523.5 L 775 543.5 L 765 567.5 Q 739.6 620.1 697.5 656 Q 677.9 672.9 654.5 686 L 656.5 683 Q 692.6 663.1 719 633.5 L 720.5 631 L 724 628.5 Q 752.1 596.1 770 553.5 Q 778.4 533.4 783 509.5 L 785 488.5 L 786 487.5 L 787 466.5 Q 789.4 458.4 795.5 454 L 806.5 449 Z " /><path fill="rgb(11,155,193)" stroke="rgb(11,155,193)" stroke-width="1" opacity="0.8941176470588236" d="M 821.5 451 L 823.5 451 L 833 458.5 L 838 468.5 L 838 490.5 L 837 491.5 L 837 502.5 L 836 503.5 L 836 509.5 L 832 527.5 L 832 532.5 L 827 551.5 L 815 583.5 Q 794.3 629.3 762.5 664 L 760.5 665 L 766 658.5 Q 799.8 620.3 820 568.5 L 828 543.5 L 832 526.5 L 832 521.5 L 834 516.5 L 835 502.5 L 836 501.5 L 836 490.5 L 837 489.5 L 837 468.5 Q 833.8 459.2 826.5 454 L 821.5 452 L 821.5 451 Z " /><path fill="rgb(11,155,193)" stroke="rgb(11,155,193)" stroke-width="1" opacity="0.8941176470588236" d="M 185.5 518 L 190 540.5 L 201 572.5 Q 215.6 608.9 238 637.5 L 239 646.5 L 236 656.5 L 234 671.5 L 232 676.5 L 226 710.5 L 222 725.5 L 222 730.5 L 220 735.5 L 219 745.5 L 214 765.5 L 214 773.5 Q 215.8 783.2 222.5 788 Q 228.3 792.7 240.5 791 L 294.5 768 L 296.5 766 L 305.5 763 L 354.5 740 L 362.5 738 L 373.5 744 L 404.5 756 L 440 765 L 439.5 767 L 397.5 755 L 360.5 739 L 304.5 765 L 281.5 774 L 277.5 777 L 267.5 780 L 259.5 785 L 237.5 793 L 236.5 792 L 225.5 791 L 218 785.5 L 213 773.5 L 213 763.5 L 217 748.5 L 218 738.5 L 225 708.5 L 225 703.5 L 227 698.5 L 231 674.5 L 233 669.5 L 238 639.5 L 235 638.5 L 235 636.5 L 218 610.5 L 215 602 Q 212 603.3 213 599.5 L 208 591.5 L 207 586.5 L 204 582.5 L 203 577.5 L 200 573.5 Q 199.1 565.4 195 560.5 L 193 550.5 L 191 548.5 L 188 538.5 L 185 524.5 L 185.5 518 Z " /><path fill="rgb(11,155,193)" stroke="rgb(11,155,193)" stroke-width="1" opacity="0.8941176470588236" d="M 194.5 563 L 195.5 565 L 194.5 563 Z " /><path fill="rgb(11,155,193)" stroke="rgb(11,155,193)" stroke-width="1" opacity="0.8941176470588236" d="M 759.5 666 L 750 676.5 L 747.5 680 L 731 694.5 L 731.5 696 Q 730 693.5 728.5 697 Q 709.7 712.7 688 725.5 L 688.5 727 L 686.5 726 L 672.5 735 L 645.5 748 L 635.5 751 L 633.5 753 L 633 751 Q 708.8 721.5 759.5 666 Z " /><path fill="rgb(11,155,193)" stroke="rgb(11,155,193)" stroke-width="1" opacity="0.8941176470588236" d="M 651.5 686 L 653 686.5 L 634.5 697 L 621.5 702 L 622.5 700 Q 638.9 694.9 651.5 686 Z " /><path fill="rgb(11,155,193)" stroke="rgb(11,155,193)" stroke-width="1" opacity="0.8941176470588236" d="M 618.5 702 L 620 702.5 L 594.5 712 L 590.5 712 L 578.5 716 L 556.5 720 L 548.5 720 L 539.5 722 L 527.5 722 L 527.5 721 L 529.5 720 Q 531.3 722.8 537.5 721 L 538.5 720 L 555.5 719 L 573.5 715 L 578.5 715 L 618.5 702 Z " /><path fill="rgb(11,155,193)" stroke="rgb(11,155,193)" stroke-width="1" opacity="0.8941176470588236" d="M 471.5 718 L 472.5 719 L 481.5 719 L 491.5 721 L 526 721.5 L 524.5 723 L 502.5 723 L 501.5 722 L 488.5 722 L 487.5 721 L 471 720 L 471.5 718 Z " /><path fill="rgb(11,155,193)" stroke="rgb(11,155,193)" stroke-width="1" opacity="0.8941176470588236" d="M 630.5 752 L 632 752.5 L 622.5 757 L 622 755 L 630.5 752 Z " /><path fill="rgb(11,155,193)" stroke="rgb(11,155,193)" stroke-width="1" opacity="0.8941176470588236" d="M 619.5 756 L 621 756.5 L 616.5 759 L 606.5 761 L 606.5 760 L 619.5 756 Z " /><path fill="rgb(11,155,193)" stroke="rgb(11,155,193)" stroke-width="1" opacity="0.8941176470588236" d="M 602.5 761 L 605 761.5 L 576.5 769 L 574.5 769 L 564.5 771 L 557.5 771 L 556.5 772 L 549.5 772 L 548.5 773 L 538.5 773 L 537.5 774 L 491.5 774 L 486.5 773 Q 480.2 774.8 478.5 772 L 476.5 773 L 475.5 772 L 468.5 772 L 467.5 771 L 449.5 769 L 441 766.5 L 444.5 766 L 450.5 768 L 456.5 768 L 470.5 771 L 478.5 771 L 479.5 772 L 491.5 772 L 492.5 773 L 532.5 773 L 533.5 772 L 545.5 772 L 546.5 771 L 563.5 770 L 569.5 768 L 589.5 765 L 602.5 761 Z " /></svg>